<?xml version="1.0" encoding="iso-8859-1"?>
<!-- Generator: Adobe Illustrator 19.0.0, SVG Export Plug-In . SVG Version: 6.00 Build 0)  -->
<svg version="1.1" id="Capa_1" xmlns="http://www.w3.org/2000/svg" xmlns:xlink="http://www.w3.org/1999/xlink" x="0px" y="0px"
	 viewBox="0 0 490 490" style="enable-background:new 0 0 490 490;" xml:space="preserve">
<g>
	<path d="M463.648,0H26.353C11.799,0,0,12.09,0,27.003v329.454c0,14.914,11.799,27.004,26.353,27.004h50.82L45.217,490
		l149.871-102.284c4.294-2.887,9.319-4.425,14.456-4.425h254.105c14.554,0,26.352-12.09,26.352-27.003V27.003
		C490,12.09,478.202,0,463.648,0z M459.375,352.666H209.543c-11.259,0-22.166,3.332-31.719,9.754l-78.421,53.52l7.103-23.68
		l11.826-39.423h-41.16H30.625V30.625h428.75V352.666z"/>
	<path d="M245,303.932c23.237-12.295,46.297-16.393,66.714-16.393c40.835,0,71.099,16.393,71.099,16.393V96.541
		c-23.034-12.42-46.072-16.555-66.532-16.555C275.534,79.987,245,96.38,245,96.38s-30.54-16.391-71.279-16.393
		c-20.464-0.001-43.493,4.133-66.532,16.555v207.391c0,0,30.27-16.393,71.099-16.393C198.706,287.539,221.759,291.636,245,303.932z
		 M352.188,116.457v144.795c-11.846-2.533-25.532-4.337-40.474-4.337c-17.766,0-34.954,2.596-51.406,7.677V122.969
		c4.546-2.181,27.279-12.357,55.972-12.357C328.819,110.612,340.838,112.573,352.188,116.457z M137.813,116.457
		c11.351-3.885,23.368-5.846,35.906-5.845c29.059,0.002,51.96,10.415,55.964,12.348v141.628
		c-16.448-5.079-33.633-7.673-51.396-7.673c-14.942,0-28.627,1.805-40.474,4.338V116.457z"/>
</g>
<g>
</g>
<g>
</g>
<g>
</g>
<g>
</g>
<g>
</g>
<g>
</g>
<g>
</g>
<g>
</g>
<g>
</g>
<g>
</g>
<g>
</g>
<g>
</g>
<g>
</g>
<g>
</g>
<g>
</g>
</svg>
