<?xml version="1.0" encoding="iso-8859-1"?>
<!-- Generator: Adobe Illustrator 19.0.0, SVG Export Plug-In . SVG Version: 6.00 Build 0)  -->
<svg version="1.1" id="Capa_1" xmlns="http://www.w3.org/2000/svg" xmlns:xlink="http://www.w3.org/1999/xlink" x="0px" y="0px"
	 viewBox="0 0 463 463" style="enable-background:new 0 0 463 463;" xml:space="preserve">
<path d="M359.5,448H351V335.5c0-0.234-0.011-0.467-0.033-0.7l-24-256c-0.357-3.81-3.525-6.74-7.352-6.799
	c-0.04,0-0.078-0.001-0.118-0.001c-3.774,0-6.97,2.812-7.44,6.57l-21.094,168.755l-0.776-0.282L270.976,6.902
	C270.664,3.004,267.41,0,263.5,0s-7.164,3.004-7.476,6.902L239.311,215.82l-0.535-2.139c-0.834-3.339-3.834-5.681-7.276-5.681
	s-6.441,2.342-7.276,5.681l-0.535,2.139L206.976,6.902C206.664,3.004,203.41,0,199.5,0s-7.164,3.004-7.476,6.902l-19.211,240.14
	l-0.776,0.282L150.942,78.57c-0.47-3.758-3.665-6.57-7.44-6.57c-0.04,0-0.079,0-0.118,0.001c-3.826,0.059-6.994,2.989-7.352,6.799
	l-24,256c-0.022,0.233-0.033,0.466-0.033,0.7V448h-8.5c-4.142,0-7.5,3.358-7.5,7.5s3.358,7.5,7.5,7.5h256c4.142,0,7.5-3.358,7.5-7.5
	S363.642,448,359.5,448z M295.5,408c-4.142,0-7.5,3.358-7.5,7.5V448h-9v-36.915c0-0.938-0.042-1.872-0.109-2.804
	c0.066-0.4,0.109-0.809,0.109-1.228c0-3.784,0.895-7.573,2.586-10.957l13.914-27.827l13.914,27.827
	c1.692,3.384,2.586,7.173,2.586,10.957v0.446V448h-9v-32.5C303,411.358,299.642,408,295.5,408z M247.5,408
	c-4.142,0-7.5,3.358-7.5,7.5V448h-17v-32.5c0-4.142-3.358-7.5-7.5-7.5s-7.5,3.358-7.5,7.5V448h-9v-36.915
	c0-5.72,2.017-11.29,5.679-15.685l26.821-32.186l26.821,32.186c3.662,4.395,5.679,9.965,5.679,15.685V448h-9v-32.5
	C255,411.358,251.642,408,247.5,408z M167.5,408c-4.142,0-7.5,3.358-7.5,7.5V448h-9v-40.5v-0.446c0-3.784,0.895-7.573,2.586-10.957
	l13.914-27.827l13.914,27.827c1.692,3.384,2.586,7.173,2.586,10.957c0,0.419,0.043,0.827,0.109,1.228
	c-0.067,0.931-0.109,1.866-0.109,2.804V448h-9v-32.5C175,411.358,171.642,408,167.5,408z M132.454,277.679l26.638-9.686
	l-8.51,48.225l-22.508,8.185L132.454,277.679z M185.025,319.653l13.977-5.082l-8.719,34.876L185.025,319.653z M212.29,261.42
	l-8.899,35.594l-20.113,7.314l3.719-46.483l24.3-8.836L212.29,261.42z M167.5,306.657l7.656,43.386l-0.948-1.897
	c-1.27-2.541-3.867-4.146-6.708-4.146s-5.438,1.605-6.708,4.146l-0.948,1.897L167.5,306.657z M334.927,324.402l-22.508-8.185
	l-8.51-48.225l26.638,9.686L334.927,324.402z M295.5,306.657l7.656,43.386l-0.948-1.897c-1.27-2.541-3.867-4.146-6.708-4.146
	s-5.438,1.605-6.708,4.146l-0.948,1.897L295.5,306.657z M279.722,304.328l-20.113-7.314l-8.899-35.594l0.993-12.411l24.3,8.836
	L279.722,304.328z M277.975,319.653l-5.258,29.793l-8.719-34.876L277.975,319.653z M327,407.5v-0.446v-1.25
	c0-4.618-0.407-9.267-1.21-13.816l-10.362-58.716l20.572,7.48V448h-9V407.5z M318.435,148.489l10.563,112.666l-23.574-8.572
	L318.435,148.489z M263.5,101.55l11.189,139.856l-21.744-7.907L263.5,101.55z M260.402,362.032
	c1.302,5.211,2.242,10.507,2.838,15.841l-25.979-31.174c-1.425-1.71-3.536-2.699-5.762-2.699s-4.337,0.989-5.762,2.699
	l-25.979,31.174c0.596-5.335,1.536-10.631,2.838-15.841L231.5,246.423L260.402,362.032z M199.5,101.55l10.556,131.949l-21.744,7.907
	L199.5,101.55z M144.565,148.489l13.012,104.094l-23.574,8.572L144.565,148.489z M127,340.753l20.572-7.48l-10.362,58.716
	c-0.803,4.549-1.21,9.198-1.21,13.816v1.25v0.446V448h-9V340.753z"/>
<g>
</g>
<g>
</g>
<g>
</g>
<g>
</g>
<g>
</g>
<g>
</g>
<g>
</g>
<g>
</g>
<g>
</g>
<g>
</g>
<g>
</g>
<g>
</g>
<g>
</g>
<g>
</g>
<g>
</g>
</svg>
