<svg id="Layer_1" enable-background="new 0 0 512 512" height="512" viewBox="0 0 512 512" width="512" xmlns="http://www.w3.org/2000/svg"><g><g><path d="m510.895 496.178-44.985-87.527-9.915-257.783c-.254-6.615-2.502-12.654-6.132-17.532 9.788-7.298 16.14-18.962 16.14-32.083 0-22.056-17.944-40-40-40s-40 17.944-40 40c0 13.121 6.351 24.785 16.14 32.083-3.63 4.878-5.877 10.918-6.132 17.532l-6.399 166.376-35.391-12.476-8.228-213.903c-.254-6.615-2.502-12.654-6.132-17.533 9.788-7.298 16.14-18.963 16.14-32.083 0-22.056-17.944-40-40-40s-39.999 17.944-39.999 40c0 13.12 6.351 24.784 16.139 32.083-3.63 4.878-5.877 10.918-6.131 17.533l-7.205 187.318-19.48-6.867c-2.15-.759-4.498-.759-6.648 0l-19.479 6.866-2.924-76.046c-.214-5.519-4.882-9.828-10.378-9.608-5.519.212-9.82 4.858-9.608 10.377l.91 23.66-30.811 10.861 5.608-145.793c.223-5.822 4.619-10.383 10.007-10.383s9.783 4.561 10.007 10.385l.821 21.34c.212 5.519 4.853 9.798 10.377 9.608 5.519-.212 9.82-4.858 9.607-10.377l-.82-21.339c-.254-6.615-2.502-12.655-6.132-17.534 9.788-7.298 16.139-18.962 16.139-32.083 0-22.056-17.944-40-40-40s-40.001 17.944-40.001 40c0 13.12 6.351 24.784 16.139 32.083-3.63 4.878-5.877 10.918-6.131 17.533l-8.227 213.902-35.391 12.476-6.399-166.376c-.254-6.615-2.502-12.654-6.132-17.532 9.788-7.298 16.14-18.962 16.14-32.083 0-22.056-17.944-40-40-40s-40 17.944-40 40c0 13.121 6.351 24.785 16.14 32.083-3.63 4.878-5.877 10.918-6.132 17.532l-9.915 257.783-44.987 87.527c-1.593 3.1-1.457 6.806.359 9.781 1.815 2.975 5.05 4.79 8.535 4.79h492c3.485 0 6.72-1.815 8.535-4.79 1.818-2.974 1.953-6.68.361-9.781zm-65.45-99.25-38.363-13.523 1.472-38.277 35.379 12.471zm-4.654-121.017-29.179-10.286 4.384-113.989c.225-5.823 4.62-10.384 10.008-10.384s9.783 4.562 10.008 10.384zm-14.788-194.659c11.028 0 20 8.972 20 20 0 11.027-8.972 19.999-20 19.999s-20-8.972-20-19.999c0-11.028 8.972-20 20-20zm-15.196 205.296 30.811 10.861 1.488 38.693-33.747-11.896zm-22 51.618-1.472 38.277-30.774-10.848-1.513-39.329zm-52.535 20.277-39.998-14.1 1.473-38.277 37.013 13.047zm-4.655-121.016-30.812-10.861 5.191-134.931c.223-5.823 4.619-10.384 10.007-10.384 5.387 0 9.782 4.562 10.007 10.384zm-15.616-216.177c11.028 0 20 8.972 20 20s-8.972 20-20 20c-11.027 0-19.999-8.972-19.999-20s8.972-20 19.999-20zm-16.001 226.238 32.444 11.437 1.488 38.692-35.381-12.472zm-44 43.863 22 7.755-1.472 38.277-17.203-6.064c-2.15-.759-4.498-.759-6.648 0l-17.202 6.064-1.472-38.277zm-40.274 52.993-39.995 14.099 1.513-39.329 37.01-13.047zm-19.727-323.094c11.028 0 20 8.972 20 20s-8.972 20-20 20c-11.027 0-19.999-8.972-19.999-20s8.972-20 19.999-20zm-16.44 237.674 32.442-11.436 1.448 37.657-35.379 12.471zm-22.605 67.342-1.513 39.329-30.774 10.848-1.472-38.277zm-88.885 31.332 35.379-12.472 1.472 38.277-38.364 13.524zm.827-21.497 1.488-38.693 30.811-10.861 1.448 37.657zm2.314-60.19 4.78-124.275c.225-5.823 4.62-10.384 10.008-10.384s9.783 4.562 10.008 10.384l4.384 113.989zm14.788-194.659c11.028 0 20 8.972 20 20 0 11.027-8.972 19.999-20 19.999s-20-8.972-20-19.999c0-11.028 8.972-20 20-20zm25.704 409.498 4.018-22.499c.388-2.171 2.759-13.001 11.399-13.001s11.012 10.831 11.399 13.001l4.018 22.499zm104.724 0 9.418-52.743c2.616-14.65 12.084-31.758 30.156-31.758 18.071 0 27.539 17.107 30.154 31.757l9.419 52.743h-79.147zm153.039 0 4.018-22.499c.388-2.171 2.759-13.001 11.399-13.001s11.012 10.831 11.399 13.001l4.018 22.499zm51.152 0-4.646-26.015c-3.149-17.636-15.644-29.486-31.089-29.486-15.446 0-27.939 11.85-31.089 29.486l-4.645 26.015h-33.256l-10.047-56.259c-5.233-29.306-24.799-48.242-49.845-48.242-25.045 0-44.61 18.936-49.845 48.242l-10.046 56.259h-33.255l-4.646-26.015c-3.149-17.636-15.644-29.486-31.089-29.486-15.446 0-27.939 11.85-31.089 29.486l-4.645 26.015h-65.002l36.691-71.388 192.926-68.009 192.927 68.009 36.69 71.388z"/><path d="m218.55 147.558h-.007c-5.522 0-9.996 4.477-9.996 10s4.48 10 10.003 10 10-4.477 10-10-4.478-10-10-10z"/></g></g></svg>